<svg width="24" height="24" viewBox="0 0 24 24" fill="none" xmlns="http://www.w3.org/2000/svg">
    <path d="M12 24C18.6274 24 24 18.6274 24 12C24 5.37258 18.6274 0 12 0C5.37258 0 0 5.37258 0 12C0 18.6274 5.37258 24 12 24Z" fill="#ffd900"/>
    <path d="M10.665 12L13.4877 14.8227C13.757 15.092 13.757 15.5287 13.4877 15.798C13.2183 16.0673 12.7817 16.0673 12.5123 15.798L9.202 12.4877C8.93267 12.2183 8.93267 11.7817 9.202 11.5123L12.5123 8.202C12.7817 7.93267 13.2183 7.93267 13.4877 8.202C13.757 8.47132 13.757 8.90799 13.4877 9.17731L10.665 12Z" fill="#1A051D"/>
</svg>