<svg width="79" height="22" viewBox="0 0 79 22" fill="none" xmlns="http://www.w3.org/2000/svg">
    <path d="M63.7597 10.9734C63.7597 9.7867 63.5471 8.64003 63.1618 7.5867C62.8031 6.36003 62.2053 4.6267 61.9661 3.8267C61.727 3.0267 61.4878 1.1067 60.3054 0.493369C59.123 -0.119964 57.5287 0.360036 56.5854 0.600036C55.6421 0.840036 54.1541 0.906702 52.3473 1.21337C51.9753 1.2667 51.6033 1.3467 51.2446 1.44004C50.2083 1.7067 49.73 1.97337 49.73 1.97337C46.3023 3.53337 43.9241 6.96003 43.9241 10.96C43.9241 12.4 44.243 13.7734 44.801 15.0134C45.1863 16.16 45.6778 17.5334 45.9037 18.2134C46.1561 19.0134 46.4484 20.92 47.6308 21.5067C48.8266 22.0934 50.4076 21.5734 51.3376 21.32C52.0816 21.1067 53.1843 21.0134 54.5128 20.8C59.6943 20.4667 63.7597 16.2 63.7597 10.9734Z" fill="#FBD60B"/>
    <path d="M47.1393 13.64C45.6247 9.94669 47.405 5.72003 51.125 4.21336C54.845 2.70669 59.0831 4.48003 60.5977 8.17336C62.1123 11.8667 60.332 16.0934 56.612 17.6C52.892 19.12 48.6539 17.3467 47.1393 13.64Z" fill="white"/>
    <path d="M50.5272 12.2668C49.7699 10.4268 50.66 8.33345 52.5067 7.58678C54.3534 6.84012 56.4526 7.72012 57.2099 9.56012C57.9672 11.4001 57.077 13.4934 55.2303 14.2401C53.3836 14.9868 51.2712 14.1068 50.5272 12.2668Z" fill="#FBD60B"/>
    <path d="M8.91629 14.1734V17.4401H0.652575V4.49341H4.27957V14.1734H8.91629Z" fill="#1D1D1A"/>
    <path d="M20.9399 14.3467V17.4401H12.4636V4.49341H20.7804V7.57341H16.0241V9.48007H20.3021V12.4134H16.0241V14.3467H20.9399Z" fill="#1D1D1A"/>
    <path d="M38.3176 17.4268L37.3079 9.96013L33.8536 17.4401H32.804L29.3497 9.96013L28.3533 17.4268H24.713L26.6926 4.4668H30.2664L33.3221 11.5201L36.4044 4.4668H39.9916L41.9313 17.4268H38.3176Z" fill="#1D1D1A"/>
    <path d="M78.3474 4.49341V17.4401H75.3847L70.2166 10.4134V17.4401H66.749V4.49341H69.8844L74.8799 11.2801V4.49341H78.3474Z" fill="#1D1D1A"/>
</svg>